<svg id="visual" viewBox="0 0 960 540" width="960" height="540" xmlns="http://www.w3.org/2000/svg" xmlns:xlink="http://www.w3.org/1999/xlink" version="1.1"><g stroke-width="1" stroke-linejoin="bevel"><path d="M514 285L483 351L539 322Z" fill="#006a7d" stroke="#006a7d"></path><path d="M521 395L556 333L539 322Z" fill="#006a7d" stroke="#006a7d"></path><path d="M600 270L547 239L514 285Z" fill="#0a4357" stroke="#0a4357"></path><path d="M483 351L521 395L539 322Z" fill="#08212f" stroke="#08212f"></path><path d="M483 351L491 411L521 395Z" fill="#06566a" stroke="#06566a"></path><path d="M600 270L514 285L539 322Z" fill="#08212f" stroke="#08212f"></path><path d="M398 246L409 300L514 285Z" fill="#007e8e" stroke="#007e8e"></path><path d="M514 285L409 300L483 351Z" fill="#00a9ab" stroke="#00a9ab"></path><path d="M483 351L470 416L491 411Z" fill="#006a7d" stroke="#006a7d"></path><path d="M438 407L470 416L483 351Z" fill="#06566a" stroke="#06566a"></path><path d="M590 388L584 384L581 413Z" fill="#00101c" stroke="#00101c"></path><path d="M521 395L584 384L556 333Z" fill="#2dd4bf" stroke="#2dd4bf"></path><path d="M556 333L600 270L539 322Z" fill="#0a3143" stroke="#0a3143"></path><path d="M403 393L438 407L483 351Z" fill="#2dd4bf" stroke="#2dd4bf"></path><path d="M651 332L600 270L556 333Z" fill="#0a3143" stroke="#0a3143"></path><path d="M581 413L584 384L521 395Z" fill="#0a4357" stroke="#0a4357"></path><path d="M584 384L651 332L556 333Z" fill="#00939e" stroke="#00939e"></path><path d="M495 433L521 395L491 411Z" fill="#2dd4bf" stroke="#2dd4bf"></path><path d="M485 456L495 433L470 416Z" fill="#0a3143" stroke="#0a3143"></path><path d="M470 416L495 433L491 411Z" fill="#007e8e" stroke="#007e8e"></path><path d="M495 433L540 427L521 395Z" fill="#00a9ab" stroke="#00a9ab"></path><path d="M600 270L569 221L547 239Z" fill="#00a9ab" stroke="#00a9ab"></path><path d="M447 184L398 246L514 285Z" fill="#08212f" stroke="#08212f"></path><path d="M540 427L581 413L521 395Z" fill="#08212f" stroke="#08212f"></path><path d="M409 300L403 393L483 351Z" fill="#007e8e" stroke="#007e8e"></path><path d="M444 464L485 456L470 416Z" fill="#2dd4bf" stroke="#2dd4bf"></path><path d="M524 191L514 285L547 239Z" fill="#06566a" stroke="#06566a"></path><path d="M409 300L382 379L403 393Z" fill="#00a9ab" stroke="#00a9ab"></path><path d="M398 246L378 280L409 300Z" fill="#00939e" stroke="#00939e"></path><path d="M569 221L524 191L547 239Z" fill="#0a4357" stroke="#0a4357"></path><path d="M378 280L370 331L409 300Z" fill="#00a9ab" stroke="#00a9ab"></path><path d="M370 331L382 379L409 300Z" fill="#007e8e" stroke="#007e8e"></path><path d="M363 383L382 381L382 379Z" fill="#01beb6" stroke="#01beb6"></path><path d="M382 379L382 381L403 393Z" fill="#01beb6" stroke="#01beb6"></path><path d="M444 464L470 416L438 407Z" fill="#01beb6" stroke="#01beb6"></path><path d="M495 433L485 456L540 427Z" fill="#01beb6" stroke="#01beb6"></path><path d="M540 427L585 440L581 413Z" fill="#00939e" stroke="#00939e"></path><path d="M383 413L438 407L403 393Z" fill="#00101c" stroke="#00101c"></path><path d="M344 309L363 331L370 331Z" fill="#06566a" stroke="#06566a"></path><path d="M343 354L363 383L382 379Z" fill="#0a4357" stroke="#0a4357"></path><path d="M577 483L585 440L540 427Z" fill="#00939e" stroke="#00939e"></path><path d="M581 413L622 447L590 388Z" fill="#00939e" stroke="#00939e"></path><path d="M524 191L447 184L514 285Z" fill="#007e8e" stroke="#007e8e"></path><path d="M622 447L651 332L590 388Z" fill="#0a4357" stroke="#0a4357"></path><path d="M590 388L651 332L584 384Z" fill="#08212f" stroke="#08212f"></path><path d="M600 270L627 230L569 221Z" fill="#01beb6" stroke="#01beb6"></path><path d="M363 383L383 413L382 381Z" fill="#00101c" stroke="#00101c"></path><path d="M382 381L383 413L403 393Z" fill="#0a4357" stroke="#0a4357"></path><path d="M343 354L382 379L370 331Z" fill="#01beb6" stroke="#01beb6"></path><path d="M648 248L627 230L600 270Z" fill="#0a3143" stroke="#0a3143"></path><path d="M535 133L503 134L524 191Z" fill="#007e8e" stroke="#007e8e"></path><path d="M383 413L444 464L438 407Z" fill="#00101c" stroke="#00101c"></path><path d="M577 483L622 447L585 440Z" fill="#08212f" stroke="#08212f"></path><path d="M503 134L440 177L447 184Z" fill="#007e8e" stroke="#007e8e"></path><path d="M447 184L440 177L398 246Z" fill="#0a3143" stroke="#0a3143"></path><path d="M651 332L652 274L600 270Z" fill="#01beb6" stroke="#01beb6"></path><path d="M320 261L344 309L378 280Z" fill="#2dd4bf" stroke="#2dd4bf"></path><path d="M378 280L344 309L370 331Z" fill="#00939e" stroke="#00939e"></path><path d="M363 331L343 354L370 331Z" fill="#01beb6" stroke="#01beb6"></path><path d="M348 244L378 280L398 246Z" fill="#007e8e" stroke="#007e8e"></path><path d="M652 274L648 248L600 270Z" fill="#0a3143" stroke="#0a3143"></path><path d="M344 309L343 354L363 331Z" fill="#08212f" stroke="#08212f"></path><path d="M374 481L413 489L383 413Z" fill="#08212f" stroke="#08212f"></path><path d="M701 268L655 255L652 274Z" fill="#0a4357" stroke="#0a4357"></path><path d="M652 274L655 255L648 248Z" fill="#08212f" stroke="#08212f"></path><path d="M733 425L669 314L651 332Z" fill="#0a4357" stroke="#0a4357"></path><path d="M651 332L669 314L652 274Z" fill="#0a4357" stroke="#0a4357"></path><path d="M389 158L348 244L398 246Z" fill="#00a9ab" stroke="#00a9ab"></path><path d="M577 483L540 427L536 508Z" fill="#00939e" stroke="#00939e"></path><path d="M585 440L622 447L581 413Z" fill="#01beb6" stroke="#01beb6"></path><path d="M536 508L540 427L485 456Z" fill="#08212f" stroke="#08212f"></path><path d="M535 133L524 191L544 134Z" fill="#06566a" stroke="#06566a"></path><path d="M524 191L503 134L447 184Z" fill="#01beb6" stroke="#01beb6"></path><path d="M544 134L524 191L569 221Z" fill="#2dd4bf" stroke="#2dd4bf"></path><path d="M544 134L569 221L636 154Z" fill="#01beb6" stroke="#01beb6"></path><path d="M569 221L627 230L639 185Z" fill="#00939e" stroke="#00939e"></path><path d="M639 185L627 230L671 190Z" fill="#01beb6" stroke="#01beb6"></path><path d="M493 521L536 508L485 456Z" fill="#006a7d" stroke="#006a7d"></path><path d="M330 426L383 413L363 383Z" fill="#00939e" stroke="#00939e"></path><path d="M383 413L413 489L444 464Z" fill="#01beb6" stroke="#01beb6"></path><path d="M444 464L493 521L485 456Z" fill="#2dd4bf" stroke="#2dd4bf"></path><path d="M317 222L320 261L348 244Z" fill="#08212f" stroke="#08212f"></path><path d="M348 244L320 261L378 280Z" fill="#00939e" stroke="#00939e"></path><path d="M344 309L306 351L343 354Z" fill="#08212f" stroke="#08212f"></path><path d="M671 190L648 248L655 255Z" fill="#00939e" stroke="#00939e"></path><path d="M671 190L627 230L648 248Z" fill="#2dd4bf" stroke="#2dd4bf"></path><path d="M571 107L545 127L544 134Z" fill="#00a9ab" stroke="#00a9ab"></path><path d="M544 134L545 127L535 133Z" fill="#2dd4bf" stroke="#2dd4bf"></path><path d="M535 133L499 114L503 134Z" fill="#00a9ab" stroke="#00a9ab"></path><path d="M376 133L389 158L392 108Z" fill="#01beb6" stroke="#01beb6"></path><path d="M440 177L389 158L398 246Z" fill="#0a4357" stroke="#0a4357"></path><path d="M302 310L306 351L344 309Z" fill="#007e8e" stroke="#007e8e"></path><path d="M343 354L330 426L363 383Z" fill="#0a3143" stroke="#0a3143"></path><path d="M320 261L302 310L344 309Z" fill="#00101c" stroke="#00101c"></path><path d="M413 489L493 521L444 464Z" fill="#006a7d" stroke="#006a7d"></path><path d="M306 351L330 426L343 354Z" fill="#06566a" stroke="#06566a"></path><path d="M756 284L701 268L669 314Z" fill="#08212f" stroke="#08212f"></path><path d="M669 314L701 268L652 274Z" fill="#006a7d" stroke="#006a7d"></path><path d="M528 102L499 114L535 133Z" fill="#007e8e" stroke="#007e8e"></path><path d="M503 134L420 105L440 177Z" fill="#01beb6" stroke="#01beb6"></path><path d="M330 426L374 481L383 413Z" fill="#0a4357" stroke="#0a4357"></path><path d="M417 540L501 540L493 521Z" fill="#08212f" stroke="#08212f"></path><path d="M283 411L326 432L330 426Z" fill="#00101c" stroke="#00101c"></path><path d="M330 426L326 432L374 481Z" fill="#2dd4bf" stroke="#2dd4bf"></path><path d="M389 158L317 222L348 244Z" fill="#00939e" stroke="#00939e"></path><path d="M320 261L261 230L302 310Z" fill="#2dd4bf" stroke="#2dd4bf"></path><path d="M701 268L671 190L655 255Z" fill="#08212f" stroke="#08212f"></path><path d="M639 185L636 154L569 221Z" fill="#06566a" stroke="#06566a"></path><path d="M671 190L636 154L639 185Z" fill="#0a3143" stroke="#0a3143"></path><path d="M545 127L528 102L535 133Z" fill="#006a7d" stroke="#006a7d"></path><path d="M420 105L389 158L440 177Z" fill="#06566a" stroke="#06566a"></path><path d="M571 107L528 102L545 127Z" fill="#006a7d" stroke="#006a7d"></path><path d="M417 540L493 521L413 489Z" fill="#0a4357" stroke="#0a4357"></path><path d="M493 521L517 540L536 508Z" fill="#01beb6" stroke="#01beb6"></path><path d="M536 508L593 535L577 483Z" fill="#2dd4bf" stroke="#2dd4bf"></path><path d="M501 540L517 540L493 521Z" fill="#08212f" stroke="#08212f"></path><path d="M667 527L685 465L622 447Z" fill="#2dd4bf" stroke="#2dd4bf"></path><path d="M636 154L571 107L544 134Z" fill="#2dd4bf" stroke="#2dd4bf"></path><path d="M517 540L544 540L536 508Z" fill="#00939e" stroke="#00939e"></path><path d="M420 105L503 134L499 114Z" fill="#2dd4bf" stroke="#2dd4bf"></path><path d="M389 158L334 150L317 222Z" fill="#00a9ab" stroke="#00a9ab"></path><path d="M279 203L296 224L317 222Z" fill="#0a3143" stroke="#0a3143"></path><path d="M317 222L296 224L320 261Z" fill="#08212f" stroke="#08212f"></path><path d="M488 40L420 105L499 114Z" fill="#007e8e" stroke="#007e8e"></path><path d="M632 540L622 447L577 483Z" fill="#0a4357" stroke="#0a4357"></path><path d="M622 447L733 425L651 332Z" fill="#00101c" stroke="#00101c"></path><path d="M544 540L593 535L536 508Z" fill="#06566a" stroke="#06566a"></path><path d="M408 540L413 489L374 481Z" fill="#00939e" stroke="#00939e"></path><path d="M408 540L417 540L413 489Z" fill="#0a4357" stroke="#0a4357"></path><path d="M306 351L283 411L330 426Z" fill="#0a4357" stroke="#0a4357"></path><path d="M326 432L333 507L374 481Z" fill="#006a7d" stroke="#006a7d"></path><path d="M270 385L283 411L306 351Z" fill="#00101c" stroke="#00101c"></path><path d="M270 385L306 351L253 358Z" fill="#08212f" stroke="#08212f"></path><path d="M420 105L392 108L389 158Z" fill="#006a7d" stroke="#006a7d"></path><path d="M376 133L334 150L389 158Z" fill="#007e8e" stroke="#007e8e"></path><path d="M318 105L334 150L376 133Z" fill="#00a9ab" stroke="#00a9ab"></path><path d="M333 507L408 540L374 481Z" fill="#007e8e" stroke="#007e8e"></path><path d="M253 358L306 351L249 331Z" fill="#006a7d" stroke="#006a7d"></path><path d="M692 155L648 121L636 154Z" fill="#00101c" stroke="#00101c"></path><path d="M636 154L648 121L571 107Z" fill="#2dd4bf" stroke="#2dd4bf"></path><path d="M692 155L636 154L671 190Z" fill="#00939e" stroke="#00939e"></path><path d="M757 216L692 155L671 190Z" fill="#08212f" stroke="#08212f"></path><path d="M644 583L621 542L593 535Z" fill="#01beb6" stroke="#01beb6"></path><path d="M593 535L621 542L577 483Z" fill="#00939e" stroke="#00939e"></path><path d="M644 583L593 535L544 540Z" fill="#0a3143" stroke="#0a3143"></path><path d="M644 583L544 540L517 540Z" fill="#007e8e" stroke="#007e8e"></path><path d="M644 583L517 540L501 540Z" fill="#0a3143" stroke="#0a3143"></path><path d="M644 583L501 540L417 540Z" fill="#00939e" stroke="#00939e"></path><path d="M307 152L279 203L317 222Z" fill="#08212f" stroke="#08212f"></path><path d="M249 331L306 351L302 310Z" fill="#00939e" stroke="#00939e"></path><path d="M249 331L302 310L261 230Z" fill="#0a4357" stroke="#0a4357"></path><path d="M278 502L283 497L213 474Z" fill="#00101c" stroke="#00101c"></path><path d="M283 497L333 507L326 432Z" fill="#01beb6" stroke="#01beb6"></path><path d="M283 497L326 432L283 411Z" fill="#06566a" stroke="#06566a"></path><path d="M725 508L733 425L685 465Z" fill="#08212f" stroke="#08212f"></path><path d="M685 465L733 425L622 447Z" fill="#08212f" stroke="#08212f"></path><path d="M701 268L757 216L671 190Z" fill="#00a9ab" stroke="#00a9ab"></path><path d="M261 230L320 261L296 224Z" fill="#08212f" stroke="#08212f"></path><path d="M392 108L380 96L376 133Z" fill="#00a9ab" stroke="#00a9ab"></path><path d="M334 150L307 152L317 222Z" fill="#01beb6" stroke="#01beb6"></path><path d="M420 105L380 96L392 108Z" fill="#0a4357" stroke="#0a4357"></path><path d="M397 24L380 96L420 105Z" fill="#01beb6" stroke="#01beb6"></path><path d="M621 542L632 540L577 483Z" fill="#00a9ab" stroke="#00a9ab"></path><path d="M775 299L756 284L669 314Z" fill="#00939e" stroke="#00939e"></path><path d="M279 203L261 230L296 224Z" fill="#01beb6" stroke="#01beb6"></path><path d="M318 105L307 152L334 150Z" fill="#06566a" stroke="#06566a"></path><path d="M279 203L265 202L261 230Z" fill="#08212f" stroke="#08212f"></path><path d="M632 540L667 527L622 447Z" fill="#08212f" stroke="#08212f"></path><path d="M245 170L265 202L254 153Z" fill="#0a3143" stroke="#0a3143"></path><path d="M775 299L770 279L756 284Z" fill="#06566a" stroke="#06566a"></path><path d="M766 224L757 216L701 268Z" fill="#0a4357" stroke="#0a4357"></path><path d="M787 395L775 299L669 314Z" fill="#007e8e" stroke="#007e8e"></path><path d="M766 224L756 284L770 279Z" fill="#08212f" stroke="#08212f"></path><path d="M766 224L701 268L756 284Z" fill="#08212f" stroke="#08212f"></path><path d="M787 395L781 302L775 299Z" fill="#00939e" stroke="#00939e"></path><path d="M775 299L781 302L770 279Z" fill="#2dd4bf" stroke="#2dd4bf"></path><path d="M571 107L549 44L528 102Z" fill="#00939e" stroke="#00939e"></path><path d="M528 102L488 40L499 114Z" fill="#0a3143" stroke="#0a3143"></path><path d="M629 34L549 44L571 107Z" fill="#08212f" stroke="#08212f"></path><path d="M663 70L571 107L648 121Z" fill="#006a7d" stroke="#006a7d"></path><path d="M549 44L488 40L528 102Z" fill="#06566a" stroke="#06566a"></path><path d="M811 262L766 224L770 279Z" fill="#08212f" stroke="#08212f"></path><path d="M765 174L722 131L692 155Z" fill="#00a9ab" stroke="#00a9ab"></path><path d="M283 497L283 411L213 474Z" fill="#08212f" stroke="#08212f"></path><path d="M333 507L297 540L408 540Z" fill="#0a3143" stroke="#0a3143"></path><path d="M228 188L238 219L265 202Z" fill="#0a4357" stroke="#0a4357"></path><path d="M265 202L238 219L261 230Z" fill="#00101c" stroke="#00101c"></path><path d="M261 230L238 219L249 331Z" fill="#08212f" stroke="#08212f"></path><path d="M314 88L318 105L380 96Z" fill="#0a3143" stroke="#0a3143"></path><path d="M380 96L318 105L376 133Z" fill="#06566a" stroke="#06566a"></path><path d="M254 153L265 202L279 203Z" fill="#00939e" stroke="#00939e"></path><path d="M213 474L283 411L270 385Z" fill="#0a4357" stroke="#0a4357"></path><path d="M283 497L297 540L333 507Z" fill="#0a4357" stroke="#0a4357"></path><path d="M729 123L722 131L767 146Z" fill="#0a3143" stroke="#0a3143"></path><path d="M692 155L707 90L648 121Z" fill="#01beb6" stroke="#01beb6"></path><path d="M698 540L725 508L667 527Z" fill="#00939e" stroke="#00939e"></path><path d="M667 527L725 508L685 465Z" fill="#006a7d" stroke="#006a7d"></path><path d="M733 425L787 395L669 314Z" fill="#08212f" stroke="#08212f"></path><path d="M797 396L787 395L794 416Z" fill="#007e8e" stroke="#007e8e"></path><path d="M644 583L698 540L667 527Z" fill="#00101c" stroke="#00101c"></path><path d="M644 583L667 527L632 540Z" fill="#00101c" stroke="#00101c"></path><path d="M707 90L663 70L648 121Z" fill="#00a9ab" stroke="#00a9ab"></path><path d="M254 153L279 203L307 152Z" fill="#0a4357" stroke="#0a4357"></path><path d="M363 38L314 88L380 96Z" fill="#0a3143" stroke="#0a3143"></path><path d="M252 141L254 153L307 152Z" fill="#007e8e" stroke="#007e8e"></path><path d="M408 540L644 583L417 540Z" fill="#01beb6" stroke="#01beb6"></path><path d="M621 542L644 583L632 540Z" fill="#007e8e" stroke="#007e8e"></path><path d="M252 141L307 152L318 105Z" fill="#006a7d" stroke="#006a7d"></path><path d="M765 174L692 155L757 216Z" fill="#0a4357" stroke="#0a4357"></path><path d="M722 131L707 90L692 155Z" fill="#0a3143" stroke="#0a3143"></path><path d="M786 179L765 174L757 216Z" fill="#007e8e" stroke="#007e8e"></path><path d="M786 179L757 216L766 224Z" fill="#006a7d" stroke="#006a7d"></path><path d="M286 534L297 540L283 497Z" fill="#06566a" stroke="#06566a"></path><path d="M408 540L122 578L644 583Z" fill="#00101c" stroke="#00101c"></path><path d="M549 44L501 17L488 40Z" fill="#006a7d" stroke="#006a7d"></path><path d="M488 40L397 24L420 105Z" fill="#0a4357" stroke="#0a4357"></path><path d="M499 0L501 17L506 0Z" fill="#0a3143" stroke="#0a3143"></path><path d="M794 416L787 395L733 425Z" fill="#0a4357" stroke="#0a4357"></path><path d="M787 395L835 368L781 302Z" fill="#2dd4bf" stroke="#2dd4bf"></path><path d="M781 302L812 283L770 279Z" fill="#0a3143" stroke="#0a3143"></path><path d="M238 161L228 188L245 170Z" fill="#0a3143" stroke="#0a3143"></path><path d="M245 170L228 188L265 202Z" fill="#2dd4bf" stroke="#2dd4bf"></path><path d="M238 219L173 339L249 331Z" fill="#2dd4bf" stroke="#2dd4bf"></path><path d="M278 502L286 534L283 497Z" fill="#007e8e" stroke="#007e8e"></path><path d="M815 482L794 416L733 425Z" fill="#2dd4bf" stroke="#2dd4bf"></path><path d="M265 67L252 141L318 105Z" fill="#007e8e" stroke="#007e8e"></path><path d="M254 153L238 161L245 170Z" fill="#0a3143" stroke="#0a3143"></path><path d="M816 88L707 90L729 123Z" fill="#06566a" stroke="#06566a"></path><path d="M729 123L707 90L722 131Z" fill="#00939e" stroke="#00939e"></path><path d="M252 141L238 161L254 153Z" fill="#006a7d" stroke="#006a7d"></path><path d="M240 539L285 540L286 534Z" fill="#01beb6" stroke="#01beb6"></path><path d="M286 534L285 540L297 540Z" fill="#2dd4bf" stroke="#2dd4bf"></path><path d="M297 540L122 578L408 540Z" fill="#01beb6" stroke="#01beb6"></path><path d="M698 540L721 540L725 508Z" fill="#006a7d" stroke="#006a7d"></path><path d="M725 508L815 482L733 425Z" fill="#0a4357" stroke="#0a4357"></path><path d="M644 583L721 540L698 540Z" fill="#2dd4bf" stroke="#2dd4bf"></path><path d="M834 295L812 283L781 302Z" fill="#00a9ab" stroke="#00a9ab"></path><path d="M668 37L629 34L663 70Z" fill="#006a7d" stroke="#006a7d"></path><path d="M663 70L629 34L571 107Z" fill="#00939e" stroke="#00939e"></path><path d="M812 283L811 262L770 279Z" fill="#01beb6" stroke="#01beb6"></path><path d="M431 0L397 24L488 40Z" fill="#00939e" stroke="#00939e"></path><path d="M397 24L363 38L380 96Z" fill="#00101c" stroke="#00101c"></path><path d="M227 100L217 141L252 141Z" fill="#00a9ab" stroke="#00a9ab"></path><path d="M765 174L767 146L722 131Z" fill="#00939e" stroke="#00939e"></path><path d="M783 164L767 146L765 174Z" fill="#00101c" stroke="#00101c"></path><path d="M816 230L786 179L766 224Z" fill="#006a7d" stroke="#006a7d"></path><path d="M506 0L501 17L527 0Z" fill="#06566a" stroke="#06566a"></path><path d="M501 17L499 0L488 40Z" fill="#0a3143" stroke="#0a3143"></path><path d="M527 0L501 17L549 44Z" fill="#08212f" stroke="#08212f"></path><path d="M812 283L819 273L811 262Z" fill="#006a7d" stroke="#006a7d"></path><path d="M811 262L816 230L766 224Z" fill="#00101c" stroke="#00101c"></path><path d="M834 295L819 273L812 283Z" fill="#0a4357" stroke="#0a4357"></path><path d="M834 295L781 302L835 368Z" fill="#06566a" stroke="#06566a"></path><path d="M547 0L527 0L549 44Z" fill="#08212f" stroke="#08212f"></path><path d="M786 179L783 164L765 174Z" fill="#0a4357" stroke="#0a4357"></path><path d="M808 130L783 164L786 179Z" fill="#00101c" stroke="#00101c"></path><path d="M642 0L611 16L629 34Z" fill="#06566a" stroke="#06566a"></path><path d="M629 34L611 16L549 44Z" fill="#00939e" stroke="#00939e"></path><path d="M581 0L547 0L549 44Z" fill="#006a7d" stroke="#006a7d"></path><path d="M847 246L816 230L811 262Z" fill="#007e8e" stroke="#007e8e"></path><path d="M499 0L431 0L488 40Z" fill="#01beb6" stroke="#01beb6"></path><path d="M397 24L381 -1L363 38Z" fill="#006a7d" stroke="#006a7d"></path><path d="M707 90L668 37L663 70Z" fill="#0a3143" stroke="#0a3143"></path><path d="M642 0L668 37L678 0Z" fill="#0a3143" stroke="#0a3143"></path><path d="M253 358L213 474L270 385Z" fill="#007e8e" stroke="#007e8e"></path><path d="M278 502L240 539L286 534Z" fill="#007e8e" stroke="#007e8e"></path><path d="M135 424L213 474L253 358Z" fill="#00101c" stroke="#00101c"></path><path d="M173 339L253 358L249 331Z" fill="#00a9ab" stroke="#00a9ab"></path><path d="M499 0L429 -1L431 0Z" fill="#0a3143" stroke="#0a3143"></path><path d="M431 0L429 -1L397 24Z" fill="#2dd4bf" stroke="#2dd4bf"></path><path d="M382 -37L429 -1L499 0Z" fill="#00101c" stroke="#00101c"></path><path d="M382 -37L499 0L506 0Z" fill="#06566a" stroke="#06566a"></path><path d="M382 -37L506 0L527 0Z" fill="#0a3143" stroke="#0a3143"></path><path d="M644 -20L581 0L611 16Z" fill="#06566a" stroke="#06566a"></path><path d="M611 16L581 0L549 44Z" fill="#00101c" stroke="#00101c"></path><path d="M547 0L644 -20L527 0Z" fill="#006a7d" stroke="#006a7d"></path><path d="M192 207L173 339L238 219Z" fill="#0a4357" stroke="#0a4357"></path><path d="M190 196L192 207L228 188Z" fill="#06566a" stroke="#06566a"></path><path d="M228 188L192 207L238 219Z" fill="#08212f" stroke="#08212f"></path><path d="M190 196L228 188L192 147Z" fill="#006a7d" stroke="#006a7d"></path><path d="M835 368L787 395L797 396Z" fill="#0a4357" stroke="#0a4357"></path><path d="M819 273L847 246L811 262Z" fill="#2dd4bf" stroke="#2dd4bf"></path><path d="M865 390L831 384L794 416Z" fill="#06566a" stroke="#06566a"></path><path d="M794 416L831 384L797 396Z" fill="#06566a" stroke="#06566a"></path><path d="M217 141L238 161L252 141Z" fill="#06566a" stroke="#06566a"></path><path d="M217 141L228 188L238 161Z" fill="#00939e" stroke="#00939e"></path><path d="M192 207L185 208L173 339Z" fill="#01beb6" stroke="#01beb6"></path><path d="M831 384L835 368L797 396Z" fill="#00939e" stroke="#00939e"></path><path d="M190 196L185 208L192 207Z" fill="#2dd4bf" stroke="#2dd4bf"></path><path d="M265 67L318 105L314 88Z" fill="#00a9ab" stroke="#00a9ab"></path><path d="M213 474L240 539L278 502Z" fill="#00a9ab" stroke="#00a9ab"></path><path d="M285 540L122 578L297 540Z" fill="#06566a" stroke="#06566a"></path><path d="M429 -1L381 -1L397 24Z" fill="#08212f" stroke="#08212f"></path><path d="M315 0L265 67L314 88Z" fill="#08212f" stroke="#08212f"></path><path d="M315 0L314 88L363 38Z" fill="#01beb6" stroke="#01beb6"></path><path d="M649 -6L642 0L678 0Z" fill="#2dd4bf" stroke="#2dd4bf"></path><path d="M668 37L642 0L629 34Z" fill="#2dd4bf" stroke="#2dd4bf"></path><path d="M581 0L644 -20L547 0Z" fill="#2dd4bf" stroke="#2dd4bf"></path><path d="M668 37L759 0L678 0Z" fill="#007e8e" stroke="#007e8e"></path><path d="M781 540L815 482L725 508Z" fill="#00a9ab" stroke="#00a9ab"></path><path d="M886 371L859 334L835 368Z" fill="#00a9ab" stroke="#00a9ab"></path><path d="M265 67L227 100L252 141Z" fill="#01beb6" stroke="#01beb6"></path><path d="M217 141L192 147L228 188Z" fill="#00939e" stroke="#00939e"></path><path d="M190 196L101 160L185 208Z" fill="#06566a" stroke="#06566a"></path><path d="M871 233L847 246L901 280Z" fill="#00939e" stroke="#00939e"></path><path d="M834 295L847 246L819 273Z" fill="#007e8e" stroke="#007e8e"></path><path d="M816 230L848 227L786 179Z" fill="#08212f" stroke="#08212f"></path><path d="M644 583L781 540L721 540Z" fill="#007e8e" stroke="#007e8e"></path><path d="M721 540L781 540L725 508Z" fill="#00939e" stroke="#00939e"></path><path d="M193 114L192 147L217 141Z" fill="#0a3143" stroke="#0a3143"></path><path d="M162 495L195 499L213 474Z" fill="#08212f" stroke="#08212f"></path><path d="M213 474L195 499L240 539Z" fill="#00101c" stroke="#00101c"></path><path d="M865 390L835 368L831 384Z" fill="#0a3143" stroke="#0a3143"></path><path d="M835 368L859 334L834 295Z" fill="#06566a" stroke="#06566a"></path><path d="M816 88L729 123L767 146Z" fill="#06566a" stroke="#06566a"></path><path d="M642 0L644 -20L611 16Z" fill="#0a4357" stroke="#0a4357"></path><path d="M429 -1L382 -37L381 -1Z" fill="#2dd4bf" stroke="#2dd4bf"></path><path d="M871 233L848 227L847 246Z" fill="#00a9ab" stroke="#00a9ab"></path><path d="M847 246L848 227L816 230Z" fill="#06566a" stroke="#06566a"></path><path d="M783 164L808 130L767 146Z" fill="#006a7d" stroke="#006a7d"></path><path d="M381 -1L340 0L363 38Z" fill="#0a3143" stroke="#0a3143"></path><path d="M265 67L215 100L227 100Z" fill="#00939e" stroke="#00939e"></path><path d="M872 169L808 130L786 179Z" fill="#2dd4bf" stroke="#2dd4bf"></path><path d="M245 0L215 100L265 67Z" fill="#06566a" stroke="#06566a"></path><path d="M227 100L215 100L217 141Z" fill="#007e8e" stroke="#007e8e"></path><path d="M759 0L668 37L707 90Z" fill="#00a9ab" stroke="#00a9ab"></path><path d="M195 499L210 540L240 539Z" fill="#01beb6" stroke="#01beb6"></path><path d="M240 539L122 578L285 540Z" fill="#0a3143" stroke="#0a3143"></path><path d="M678 0L644 -20L649 -6Z" fill="#2dd4bf" stroke="#2dd4bf"></path><path d="M649 -6L644 -20L642 0Z" fill="#00939e" stroke="#00939e"></path><path d="M382 -37L315 0L340 0Z" fill="#00a9ab" stroke="#00a9ab"></path><path d="M815 482L865 390L794 416Z" fill="#01beb6" stroke="#01beb6"></path><path d="M901 280L847 246L834 295Z" fill="#01beb6" stroke="#01beb6"></path><path d="M382 -37L340 0L381 -1Z" fill="#2dd4bf" stroke="#2dd4bf"></path><path d="M340 0L315 0L363 38Z" fill="#0a3143" stroke="#0a3143"></path><path d="M781 540L825 504L815 482Z" fill="#00101c" stroke="#00101c"></path><path d="M815 482L878 499L865 390Z" fill="#01beb6" stroke="#01beb6"></path><path d="M165 77L193 114L215 100Z" fill="#08212f" stroke="#08212f"></path><path d="M215 100L193 114L217 141Z" fill="#007e8e" stroke="#007e8e"></path><path d="M80 279L106 300L185 208Z" fill="#00a9ab" stroke="#00a9ab"></path><path d="M94 331L135 424L173 339Z" fill="#00939e" stroke="#00939e"></path><path d="M644 -20L382 -37L527 0Z" fill="#01beb6" stroke="#01beb6"></path><path d="M901 280L834 295L859 334Z" fill="#00a9ab" stroke="#00a9ab"></path><path d="M848 227L872 169L786 179Z" fill="#2dd4bf" stroke="#2dd4bf"></path><path d="M860 552L814 540L781 540Z" fill="#0a4357" stroke="#0a4357"></path><path d="M781 540L814 540L825 504Z" fill="#007e8e" stroke="#007e8e"></path><path d="M960 368L886 371L960 388Z" fill="#0a3143" stroke="#0a3143"></path><path d="M106 300L173 339L185 208Z" fill="#01beb6" stroke="#01beb6"></path><path d="M173 339L135 424L253 358Z" fill="#00939e" stroke="#00939e"></path><path d="M195 499L177 543L210 540Z" fill="#01beb6" stroke="#01beb6"></path><path d="M135 424L162 495L213 474Z" fill="#00939e" stroke="#00939e"></path><path d="M382 -37L286 0L315 0Z" fill="#00939e" stroke="#00939e"></path><path d="M315 0L286 0L265 67Z" fill="#01beb6" stroke="#01beb6"></path><path d="M878 499L815 482L825 504Z" fill="#00101c" stroke="#00101c"></path><path d="M865 390L886 371L835 368Z" fill="#00939e" stroke="#00939e"></path><path d="M909 103L816 88L808 130Z" fill="#0a4357" stroke="#0a4357"></path><path d="M808 130L816 88L767 146Z" fill="#00a9ab" stroke="#00a9ab"></path><path d="M164 540L195 499L162 495Z" fill="#007e8e" stroke="#007e8e"></path><path d="M164 540L177 543L195 499Z" fill="#00939e" stroke="#00939e"></path><path d="M210 540L122 578L240 539Z" fill="#0a3143" stroke="#0a3143"></path><path d="M135 424L146 494L162 495Z" fill="#00101c" stroke="#00101c"></path><path d="M101 160L190 196L192 147Z" fill="#007e8e" stroke="#007e8e"></path><path d="M135 424L102 468L146 494Z" fill="#006a7d" stroke="#006a7d"></path><path d="M891 218L848 227L871 233Z" fill="#06566a" stroke="#06566a"></path><path d="M891 218L872 169L848 227Z" fill="#0a3143" stroke="#0a3143"></path><path d="M886 371L901 280L859 334Z" fill="#2dd4bf" stroke="#2dd4bf"></path><path d="M901 280L891 218L871 233Z" fill="#00939e" stroke="#00939e"></path><path d="M146 494L164 540L162 495Z" fill="#00101c" stroke="#00101c"></path><path d="M106 300L94 331L173 339Z" fill="#08212f" stroke="#08212f"></path><path d="M860 552L848 540L814 540Z" fill="#08212f" stroke="#08212f"></path><path d="M814 540L848 540L825 504Z" fill="#00a9ab" stroke="#00a9ab"></path><path d="M758 -29L759 0L770 -35Z" fill="#006a7d" stroke="#006a7d"></path><path d="M816 88L759 0L707 90Z" fill="#2dd4bf" stroke="#2dd4bf"></path><path d="M678 0L758 -29L644 -20Z" fill="#006a7d" stroke="#006a7d"></path><path d="M382 -37L245 0L286 0Z" fill="#0a3143" stroke="#0a3143"></path><path d="M286 0L245 0L265 67Z" fill="#0a3143" stroke="#0a3143"></path><path d="M193 114L132 118L192 147Z" fill="#06566a" stroke="#06566a"></path><path d="M245 0L165 77L215 100Z" fill="#06566a" stroke="#06566a"></path><path d="M106 300L55 310L94 331Z" fill="#006a7d" stroke="#006a7d"></path><path d="M877 523L878 499L825 504Z" fill="#0a4357" stroke="#0a4357"></path><path d="M886 371L960 358L901 280Z" fill="#00939e" stroke="#00939e"></path><path d="M134 103L132 118L193 114Z" fill="#2dd4bf" stroke="#2dd4bf"></path><path d="M101 160L80 279L185 208Z" fill="#007e8e" stroke="#007e8e"></path><path d="M72 365L86 404L94 331Z" fill="#0a3143" stroke="#0a3143"></path><path d="M94 331L86 404L135 424Z" fill="#00a9ab" stroke="#00a9ab"></path><path d="M146 494L107 540L164 540Z" fill="#08212f" stroke="#08212f"></path><path d="M848 540L877 523L825 504Z" fill="#06566a" stroke="#06566a"></path><path d="M960 368L960 358L886 371Z" fill="#00a9ab" stroke="#00a9ab"></path><path d="M644 583L860 552L781 540Z" fill="#007e8e" stroke="#007e8e"></path><path d="M848 540L873 540L877 523Z" fill="#00a9ab" stroke="#00a9ab"></path><path d="M84 438L102 468L135 424Z" fill="#0a4357" stroke="#0a4357"></path><path d="M165 77L134 103L193 114Z" fill="#007e8e" stroke="#007e8e"></path><path d="M132 118L101 160L192 147Z" fill="#08212f" stroke="#08212f"></path><path d="M91 75L134 103L165 77Z" fill="#0a3143" stroke="#0a3143"></path><path d="M860 552L873 540L848 540Z" fill="#00101c" stroke="#00101c"></path><path d="M51 119L101 160L132 118Z" fill="#06566a" stroke="#06566a"></path><path d="M805 0L759 0L816 88Z" fill="#00939e" stroke="#00939e"></path><path d="M759 0L758 -29L678 0Z" fill="#0a4357" stroke="#0a4357"></path><path d="M644 -20L770 -35L382 -37Z" fill="#0a4357" stroke="#0a4357"></path><path d="M64 363L72 365L94 331Z" fill="#0a3143" stroke="#0a3143"></path><path d="M86 404L84 438L135 424Z" fill="#00101c" stroke="#00101c"></path><path d="M48 422L84 438L86 404Z" fill="#00939e" stroke="#00939e"></path><path d="M854 50L805 0L816 88Z" fill="#006a7d" stroke="#006a7d"></path><path d="M55 310L64 363L94 331Z" fill="#08212f" stroke="#08212f"></path><path d="M72 365L64 363L86 404Z" fill="#00939e" stroke="#00939e"></path><path d="M55 310L106 300L80 279Z" fill="#06566a" stroke="#06566a"></path><path d="M909 103L854 50L816 88Z" fill="#00101c" stroke="#00101c"></path><path d="M909 103L808 130L872 169Z" fill="#2dd4bf" stroke="#2dd4bf"></path><path d="M805 0L770 -35L759 0Z" fill="#01beb6" stroke="#01beb6"></path><path d="M758 -29L770 -35L644 -20Z" fill="#007e8e" stroke="#007e8e"></path><path d="M46 260L55 310L80 279Z" fill="#0a4357" stroke="#0a4357"></path><path d="M84 438L80 480L102 468Z" fill="#0a4357" stroke="#0a4357"></path><path d="M102 468L107 540L146 494Z" fill="#08212f" stroke="#08212f"></path><path d="M48 422L80 480L84 438Z" fill="#01beb6" stroke="#01beb6"></path><path d="M48 422L86 404L64 363Z" fill="#01beb6" stroke="#01beb6"></path><path d="M80 480L107 540L102 468Z" fill="#01beb6" stroke="#01beb6"></path><path d="M164 540L122 578L177 543Z" fill="#0a3143" stroke="#0a3143"></path><path d="M177 543L122 578L210 540Z" fill="#08212f" stroke="#08212f"></path><path d="M886 371L960 393L960 388Z" fill="#007e8e" stroke="#007e8e"></path><path d="M901 280L960 228L891 218Z" fill="#00a9ab" stroke="#00a9ab"></path><path d="M960 159L909 103L872 169Z" fill="#08212f" stroke="#08212f"></path><path d="M960 421L960 393L886 371Z" fill="#0a3143" stroke="#0a3143"></path><path d="M18 540L122 578L107 540Z" fill="#00a9ab" stroke="#00a9ab"></path><path d="M107 540L122 578L164 540Z" fill="#08212f" stroke="#08212f"></path><path d="M865 390L960 421L886 371Z" fill="#06566a" stroke="#06566a"></path><path d="M101 160L46 260L80 279Z" fill="#08212f" stroke="#08212f"></path><path d="M25 400L48 422L64 363Z" fill="#2dd4bf" stroke="#2dd4bf"></path><path d="M960 186L872 169L891 218Z" fill="#006a7d" stroke="#006a7d"></path><path d="M854 50L819 -16L805 0Z" fill="#08212f" stroke="#08212f"></path><path d="M805 0L819 -16L770 -35Z" fill="#00939e" stroke="#00939e"></path><path d="M878 0L819 -16L854 50Z" fill="#2dd4bf" stroke="#2dd4bf"></path><path d="M865 390L878 499L960 421Z" fill="#00a9ab" stroke="#00a9ab"></path><path d="M960 421L878 499L960 540Z" fill="#006a7d" stroke="#006a7d"></path><path d="M25 400L64 363L0 356Z" fill="#0a3143" stroke="#0a3143"></path><path d="M80 480L18 540L107 540Z" fill="#0a3143" stroke="#0a3143"></path><path d="M1000 242L960 228L901 280Z" fill="#00939e" stroke="#00939e"></path><path d="M960 540L878 499L877 523Z" fill="#007e8e" stroke="#007e8e"></path><path d="M960 228L960 186L891 218Z" fill="#00939e" stroke="#00939e"></path><path d="M134 103L91 75L132 118Z" fill="#0a4357" stroke="#0a4357"></path><path d="M0 176L0 248L46 260Z" fill="#0a3143" stroke="#0a3143"></path><path d="M107 23L91 75L165 77Z" fill="#08212f" stroke="#08212f"></path><path d="M13 327L64 363L55 310Z" fill="#007e8e" stroke="#007e8e"></path><path d="M48 422L0 482L80 480Z" fill="#06566a" stroke="#06566a"></path><path d="M960 186L960 159L872 169Z" fill="#00101c" stroke="#00101c"></path><path d="M909 103L878 0L854 50Z" fill="#0a3143" stroke="#0a3143"></path><path d="M2 285L13 327L55 310Z" fill="#00a9ab" stroke="#00a9ab"></path><path d="M2 285L55 310L46 260Z" fill="#0a4357" stroke="#0a4357"></path><path d="M945 0L878 0L909 103Z" fill="#01beb6" stroke="#01beb6"></path><path d="M819 -16L945 0L770 -35Z" fill="#01beb6" stroke="#01beb6"></path><path d="M91 75L51 119L132 118Z" fill="#08212f" stroke="#08212f"></path><path d="M111 0L107 23L165 77Z" fill="#01beb6" stroke="#01beb6"></path><path d="M4 60L0 71L51 119Z" fill="#00101c" stroke="#00101c"></path><path d="M111 0L165 77L245 0Z" fill="#2dd4bf" stroke="#2dd4bf"></path><path d="M0 248L9 263L46 260Z" fill="#0a4357" stroke="#0a4357"></path><path d="M0 277L2 285L9 263Z" fill="#2dd4bf" stroke="#2dd4bf"></path><path d="M9 263L2 285L46 260Z" fill="#06566a" stroke="#06566a"></path><path d="M13 327L0 356L64 363Z" fill="#2dd4bf" stroke="#2dd4bf"></path><path d="M2 285L0 356L13 327Z" fill="#00a9ab" stroke="#00a9ab"></path><path d="M25 400L0 482L48 422Z" fill="#00101c" stroke="#00101c"></path><path d="M960 186L1006 241L960 159Z" fill="#00939e" stroke="#00939e"></path><path d="M960 228L1000 242L960 186Z" fill="#0a4357" stroke="#0a4357"></path><path d="M960 358L1000 242L901 280Z" fill="#0a4357" stroke="#0a4357"></path><path d="M1006 241L1000 242L960 358Z" fill="#00101c" stroke="#00101c"></path><path d="M1006 241L960 358L960 368Z" fill="#0a3143" stroke="#0a3143"></path><path d="M1006 241L960 368L960 388Z" fill="#01beb6" stroke="#01beb6"></path><path d="M1006 241L960 388L960 393Z" fill="#007e8e" stroke="#007e8e"></path><path d="M0 248L0 277L9 263Z" fill="#0a4357" stroke="#0a4357"></path><path d="M2 285L-48 408L0 356Z" fill="#06566a" stroke="#06566a"></path><path d="M987 63L960 108L995 58Z" fill="#06566a" stroke="#06566a"></path><path d="M960 159L960 108L909 103Z" fill="#2dd4bf" stroke="#2dd4bf"></path><path d="M107 23L80 8L91 75Z" fill="#006a7d" stroke="#006a7d"></path><path d="M77 -37L111 0L245 0Z" fill="#0a3143" stroke="#0a3143"></path><path d="M0 176L46 260L101 160Z" fill="#2dd4bf" stroke="#2dd4bf"></path><path d="M873 540L960 540L877 523Z" fill="#007e8e" stroke="#007e8e"></path><path d="M960 421L1006 241L960 393Z" fill="#007e8e" stroke="#007e8e"></path><path d="M960 580L960 540L873 540Z" fill="#08212f" stroke="#08212f"></path><path d="M960 580L873 540L860 552Z" fill="#00101c" stroke="#00101c"></path><path d="M960 540L1006 241L960 421Z" fill="#0a3143" stroke="#0a3143"></path><path d="M1000 242L1006 241L960 186Z" fill="#006a7d" stroke="#006a7d"></path><path d="M111 0L105 0L107 23Z" fill="#08212f" stroke="#08212f"></path><path d="M77 -37L105 0L111 0Z" fill="#006a7d" stroke="#006a7d"></path><path d="M987 63L960 92L960 108Z" fill="#0a3143" stroke="#0a3143"></path><path d="M960 108L960 92L909 103Z" fill="#0a3143" stroke="#0a3143"></path><path d="M0 170L0 176L101 160Z" fill="#06566a" stroke="#06566a"></path><path d="M0 170L101 160L51 119Z" fill="#06566a" stroke="#06566a"></path><path d="M0 143L0 170L51 119Z" fill="#08212f" stroke="#08212f"></path><path d="M105 0L80 8L107 23Z" fill="#00939e" stroke="#00939e"></path><path d="M644 583L960 580L860 552Z" fill="#08212f" stroke="#08212f"></path><path d="M960 540L960 580L1006 241Z" fill="#007e8e" stroke="#007e8e"></path><path d="M-22 477L0 482L25 400Z" fill="#00939e" stroke="#00939e"></path><path d="M0 498L18 540L80 480Z" fill="#007e8e" stroke="#007e8e"></path><path d="M0 71L0 143L51 119Z" fill="#00101c" stroke="#00101c"></path><path d="M0 482L0 498L80 480Z" fill="#006a7d" stroke="#006a7d"></path><path d="M960 92L945 0L909 103Z" fill="#007e8e" stroke="#007e8e"></path><path d="M878 0L945 0L819 -16Z" fill="#007e8e" stroke="#007e8e"></path><path d="M987 63L945 0L960 92Z" fill="#2dd4bf" stroke="#2dd4bf"></path><path d="M-48 408L25 400L0 356Z" fill="#0a4357" stroke="#0a4357"></path><path d="M-48 408L-22 477L25 400Z" fill="#0a4357" stroke="#0a4357"></path><path d="M0 482L-22 477L0 498Z" fill="#0a3143" stroke="#0a3143"></path><path d="M0 498L0 540L18 540Z" fill="#06566a" stroke="#06566a"></path><path d="M-48 408L2 285L0 277Z" fill="#01beb6" stroke="#01beb6"></path><path d="M-48 408L0 277L0 248Z" fill="#00101c" stroke="#00101c"></path><path d="M-48 408L0 248L-26 89Z" fill="#0a4357" stroke="#0a4357"></path><path d="M0 248L0 176L-26 89Z" fill="#00101c" stroke="#00101c"></path><path d="M995 58L960 108L960 159Z" fill="#006a7d" stroke="#006a7d"></path><path d="M-30 540L0 540L0 498Z" fill="#01beb6" stroke="#01beb6"></path><path d="M18 540L0 592L122 578Z" fill="#00101c" stroke="#00101c"></path><path d="M4 60L51 119L91 75Z" fill="#0a4357" stroke="#0a4357"></path><path d="M105 0L77 -37L80 8Z" fill="#01beb6" stroke="#01beb6"></path><path d="M382 -37L77 -37L245 0Z" fill="#06566a" stroke="#06566a"></path><path d="M-26 89L0 176L0 170Z" fill="#00a9ab" stroke="#00a9ab"></path><path d="M-30 540L0 592L0 540Z" fill="#00939e" stroke="#00939e"></path><path d="M1006 241L995 58L960 159Z" fill="#007e8e" stroke="#007e8e"></path><path d="M987 63L960 0L945 0Z" fill="#06566a" stroke="#06566a"></path><path d="M995 58L960 0L987 63Z" fill="#0a4357" stroke="#0a4357"></path><path d="M945 0L960 0L770 -35Z" fill="#00939e" stroke="#00939e"></path><path d="M4 60L91 75L80 8Z" fill="#06566a" stroke="#06566a"></path><path d="M0 143L-26 89L0 170Z" fill="#00939e" stroke="#00939e"></path><path d="M11 0L4 60L80 8Z" fill="#00939e" stroke="#00939e"></path><path d="M-30 540L0 498L-22 477Z" fill="#007e8e" stroke="#007e8e"></path><path d="M0 540L0 592L18 540Z" fill="#08212f" stroke="#08212f"></path><path d="M122 578L0 592L644 583Z" fill="#08212f" stroke="#08212f"></path><path d="M644 583L0 592L960 580Z" fill="#00101c" stroke="#00101c"></path><path d="M-48 408L-30 540L-22 477Z" fill="#0a3143" stroke="#0a3143"></path><path d="M0 15L-26 89L4 60Z" fill="#08212f" stroke="#08212f"></path><path d="M4 60L-26 89L0 71Z" fill="#0a3143" stroke="#0a3143"></path><path d="M0 71L-26 89L0 143Z" fill="#00939e" stroke="#00939e"></path><path d="M77 -37L11 0L80 8Z" fill="#06566a" stroke="#06566a"></path><path d="M11 0L0 15L4 60Z" fill="#08212f" stroke="#08212f"></path><path d="M77 -37L0 0L11 0Z" fill="#00a9ab" stroke="#00a9ab"></path><path d="M11 0L0 0L0 15Z" fill="#00a9ab" stroke="#00a9ab"></path><path d="M0 15L0 0L-26 89Z" fill="#006a7d" stroke="#006a7d"></path></g></svg>