<svg id="visual" viewBox="0 0 960 540" width="960" height="540" xmlns="http://www.w3.org/2000/svg" xmlns:xlink="http://www.w3.org/1999/xlink" version="1.1"><path d="M0 93L87 93L87 93L175 93L175 77L262 77L262 44L349 44L349 55L436 55L436 39L524 39L524 60L611 60L611 82L698 82L698 66L785 66L785 39L873 39L873 44L960 44L960 44L960 0L960 0L873 0L873 0L785 0L785 0L698 0L698 0L611 0L611 0L524 0L524 0L436 0L436 0L349 0L349 0L262 0L262 0L175 0L175 0L87 0L87 0L0 0Z" fill="#2dd4bf"></path><path d="M0 163L87 163L87 309L175 309L175 260L262 260L262 174L349 174L349 266L436 266L436 163L524 163L524 163L611 163L611 179L698 179L698 233L785 233L785 168L873 168L873 212L960 212L960 201L960 42L960 42L873 42L873 37L785 37L785 64L698 64L698 80L611 80L611 58L524 58L524 37L436 37L436 53L349 53L349 42L262 42L262 75L175 75L175 91L87 91L87 91L0 91Z" fill="#00c5e8"></path><path d="M0 298L87 298L87 379L175 379L175 357L262 357L262 282L349 282L349 325L436 325L436 276L524 276L524 314L611 314L611 239L698 239L698 352L785 352L785 320L873 320L873 320L960 320L960 309L960 199L960 210L873 210L873 166L785 166L785 231L698 231L698 177L611 177L611 161L524 161L524 161L436 161L436 264L349 264L349 172L262 172L262 258L175 258L175 307L87 307L87 161L0 161Z" fill="#00adfb"></path><path d="M0 487L87 487L87 487L175 487L175 444L262 444L262 433L349 433L349 482L436 482L436 471L524 471L524 492L611 492L611 487L698 487L698 449L785 449L785 476L873 476L873 487L960 487L960 444L960 307L960 318L873 318L873 318L785 318L785 350L698 350L698 237L611 237L611 312L524 312L524 274L436 274L436 323L349 323L349 280L262 280L262 355L175 355L175 377L87 377L87 296L0 296Z" fill="#008eff"></path><path d="M0 541L87 541L87 541L175 541L175 541L262 541L262 541L349 541L349 541L436 541L436 541L524 541L524 541L611 541L611 541L698 541L698 541L785 541L785 541L873 541L873 541L960 541L960 541L960 442L960 485L873 485L873 474L785 474L785 447L698 447L698 485L611 485L611 490L524 490L524 469L436 469L436 480L349 480L349 431L262 431L262 442L175 442L175 485L87 485L87 485L0 485Z" fill="#0066ff"></path></svg>